<svg id="Layer_1" xmlns="http://www.w3.org/2000/svg" viewBox="0 0 141.73 67.49"><style>.st0{fill:#FFFFFF;}</style><path class="st0" d="M90.62 27.29c-2.53 0-4.89.95-6.44 1.94V15.15c-2.78-.03-5.77 1.3-7.04 2.43v21.54c0 8.8 5.53 13.37 12.5 13.37 6.93 0 12.63-5.67 12.63-13.3-.01-6.24-4.37-11.9-11.65-11.9zm3.26 19.04c-5.7 1.48-9.71-1.54-9.71-7.1v-4.89c1.23-.74 2.53-1.23 4.46-1.23 6.77-.01 8.11 7.17 5.25 13.22zm18.24-5.84c0-2.11 0-4.23.5-5.53 1.51.17 3.78.34 5.14-.07 3.46-1.05 3.41-4.94 3.41-7.19-1.97-.13-3.82-.04-5.94.29-5.92.91-10.11 5.42-10.11 13.09v11.33h7V40.49zm18.65-13.83c0-1.94.07-3.13.63-4.3 1.65.21 4.83.61 6.72.07 3.43-.97 3.65-5.03 3.6-7.35-1.93-.15-4.31-.11-6.7.24-6.48.92-11.26 5.63-11.26 13.3v23.79h7V34.33h4.79c3.3 0 3.76-2.28 3.76-5.66h-8.55v-2.01zM45.27 2.04C41.55.68 37.67 0 33.74 0 19.61 0 6.87 8.92 2.03 22.21-4.32 39.69 4.72 59.09 22.2 65.44c3.72 1.36 7.6 2.04 11.53 2.04 14.13 0 26.87-8.92 31.71-22.21C71.8 27.8 62.75 8.4 45.27 2.04zm17.21 43.19C55 48.87 44 49.73 33.22 47.64c1.59-3.44 3.04-7.02 4.3-10.67 5.45-.2 10.64-1.23 15.33-2.99 2.57 4.72 5.8 8.68 9.69 11.08-.02.06-.03.12-.06.17zM21.39 62.12c-.17-.08-.34-.15-.51-.23-2.16-5.94-3.9-11.7-5.24-17.41 2.66 1.47 5.58 2.75 8.74 3.82 1.52.52 3.07.97 4.63 1.37-2.29 4.53-4.85 8.73-7.62 12.45zM12.6 39.1c-4.16-3.06-7.34-6.69-9.35-10.76.11-.67.26-1.35.43-2.01 2.3 1.93 4.89 3.64 7.7 5.08.34 2.57.75 5.13 1.22 7.69zm-.39-27.57c.84-.81 1.72-1.57 2.65-2.28.8 7.94 2.64 15.54 5.4 22.61-2.55-.78-4.99-1.76-7.28-2.91-.63-5.7-.88-11.47-.77-17.42zm27.31 5.88c-1.61-.46-3.17-.97-4.69-1.53 1.94-4.54 3.21-8.92 3.62-12.73.74.11 1.47.26 2.2.42.03 4.42-.36 9.09-1.13 13.84zm2.51 2.57c1.89.45 3.83.82 5.81 1.12.95 3.54 2.18 7.03 3.69 10.27-3.99 1.46-8.4 2.37-13.02 2.64 1.47-4.65 2.67-9.37 3.52-14.03zm-2.83-.73c-.89 4.93-2.16 9.94-3.76 14.84-3.74-.01-7.41-.4-10.93-1.15.76-.94 1.51-1.92 2.25-2.94 2.9-3.99 5.39-8.25 7.32-12.43 1.67.62 3.37 1.19 5.12 1.68zm-13.94 9.67c-.66.91-1.32 1.78-1.99 2.61-2.95-7.31-4.85-15.22-5.61-23.52 4.18 3.64 9.14 6.63 14.7 8.89-1.88 4.04-4.29 8.15-7.1 12.02zm2.42 17.38c-.79-.23-1.57-.48-2.36-.75-3.37-1.14-6.45-2.54-9.2-4.15 1.95-1.54 3.92-3.39 5.85-5.5 1.65 3.64 3.56 7.11 5.71 10.4zm-7.32-11.38c-1.88 2.04-3.78 3.79-5.66 5.25-.52-2.6-.95-5.19-1.31-7.8 2.22 1.01 4.56 1.86 6.97 2.55zm4.91 1.15c2.98.55 6.06.87 9.17.93-1.07 3.01-2.27 5.96-3.57 8.82-2.1-3.08-3.97-6.34-5.6-9.75zm24.61-14.68c3.35.42 6.8.64 10.34.64.7 0 1.42-.02 2.14-.03.32.8.61 1.61.87 2.43-2.81 2.56-6.17 4.67-9.95 6.25-1.35-2.93-2.5-6.09-3.4-9.29zm11.66-1.23c-4.19.06-8.27-.18-12.17-.71-1.19-4.68-1.86-9.37-2.01-13.51 6.34 3.11 11.23 8.19 14.18 14.22zM45.47 5.1c.08 4.3.7 9.17 1.87 14.06-1.69-.28-3.36-.61-4.99-1 .78-4.72 1.2-9.35 1.23-13.75.25.08.5.17.75.26.38.12.76.27 1.14.43zm-8.85-2.18c-.38 3.65-1.61 7.9-3.5 12.29-5.39-2.19-10.19-5.08-14.23-8.61 4.47-2.45 9.55-3.82 14.86-3.82.95 0 1.91.05 2.87.14zm-26.29 10.6c-.03 4.88.2 9.65.66 14.36-2.34-1.34-4.48-2.89-6.38-4.61.01-.04.03-.08.04-.12 1.31-3.59 3.25-6.84 5.68-9.63zM2.79 33.27c2.3 3.32 5.36 6.32 9.08 8.88-2.41 1.5-4.76 2.46-6.95 2.82-1.45-3.69-2.19-7.65-2.13-11.7zm2.86 13.44c2.49-.5 5.13-1.66 7.81-3.41 1.27 5.71 2.93 11.46 5 17.36-5.75-3.25-10.15-8.2-12.81-13.95zm18.57 16.48c2.58-3.55 4.98-7.5 7.15-11.73 3.42 4.37 7.31 8.34 11.63 11.82-2.95.93-6.07 1.43-9.26 1.43-3.23 0-6.43-.52-9.52-1.52zm21.97-1.12c-4.29-3.28-8.17-7.04-11.59-11.23 3.38.55 6.77.82 10.05.82 5.78 0 11.27-.84 15.9-2.48-3.31 5.75-8.38 10.25-14.36 12.89zm17-18.8c-3.39-2.2-6.25-5.75-8.58-9.99 3.51-1.49 6.69-3.41 9.45-5.71 1.04 5.08.83 10.47-.87 15.7z"/></svg>